<svg width="64" height="64" viewBox="0 0 64 64" fill="none" xmlns="http://www.w3.org/2000/svg">
<path opacity="0.1" d="M36.2705 12.4609C35.5708 12.4581 34.8621 12.4565 34.1334 12.4565H13.8668C11.5103 12.4565 9.6001 14.3668 9.6001 16.7232V62.9278L16.5617 58.5769L23.5232 62.9278L30.4848 58.5769L37.4463 62.9278L44.4079 58.5769L51.3695 62.9278V29.8666C51.3695 29.1352 51.3678 28.4242 51.3649 27.7324C51.31 27.733 51.2551 27.7333 51.2001 27.7333C42.9526 27.7333 36.2668 21.0475 36.2668 12.8C36.2668 12.6867 36.268 12.5736 36.2705 12.4609Z" fill="#04A468"/>
<line x1="20.8906" y1="46.2771" x2="40.0792" y2="46.2771" stroke="#04A468" stroke-linecap="round"/>
<line x1="20.8906" y1="50.3148" x2="40.0792" y2="50.3148" stroke="#04A468" stroke-linecap="round"/>
<path d="M26.3376 33.6645C26.3376 35.5998 27.8582 37.1204 29.7936 37.1204H31.1759C33.1112 37.1204 34.6318 35.5998 34.6318 33.6645C34.6318 28.8263 26.3376 31.591 26.3376 26.7527C26.3376 24.8174 27.8582 23.2968 29.7936 23.2968H31.1759C33.1112 23.2968 34.6318 24.8174 34.6318 26.7527" stroke="#04A468" stroke-miterlimit="10" stroke-linecap="round"/>
<path d="M30.4849 37.1204V39.8851" stroke="#04A468" stroke-miterlimit="10" stroke-linecap="round"/>
<path d="M30.4849 20.532V23.2967" stroke="#04A468" stroke-miterlimit="10" stroke-linecap="round"/>
<path fill-rule="evenodd" clip-rule="evenodd" d="M34.1539 11.9565H11.6001C10.2194 11.9565 9.1001 13.0758 9.1001 14.4565V62.9279C9.1001 63.1096 9.19874 63.2771 9.35771 63.3652C9.51669 63.4533 9.71096 63.4482 9.8651 63.3519L16.5617 59.1665L23.2582 63.3519C23.4204 63.4532 23.6261 63.4532 23.7882 63.3519L30.4848 59.1665L37.1813 63.3519C37.3435 63.4532 37.5492 63.4532 37.7113 63.3519L44.4079 59.1665L51.1045 63.3519C51.2586 63.4482 51.4529 63.4533 51.6118 63.3652C51.7708 63.2771 51.8695 63.1096 51.8695 62.9279V29.8538C51.6474 29.8624 51.4243 29.8667 51.2001 29.8667C51.0896 29.8667 50.9794 29.8656 50.8695 29.8635V62.0257L44.6729 58.1529C44.5108 58.0516 44.305 58.0516 44.1429 58.1529L37.4463 62.3382L30.7498 58.1529C30.5876 58.0516 30.3819 58.0516 30.2198 58.1529L23.5232 62.3382L16.8267 58.1529C16.6645 58.0516 16.4588 58.0516 16.2967 58.1529L10.1001 62.0257V14.4565C10.1001 13.6281 10.7717 12.9565 11.6001 12.9565H34.1341C34.1337 12.9044 34.1334 12.8522 34.1334 12.8C34.1334 12.5172 34.1403 12.236 34.1539 11.9565Z" fill="#04A468"/>
<path d="M63.5001 12.8C63.5001 19.5931 57.9932 25.1 51.2001 25.1C44.407 25.1 38.9001 19.5931 38.9001 12.8C38.9001 6.0069 44.407 0.5 51.2001 0.5C57.9932 0.5 63.5001 6.0069 63.5001 12.8Z" stroke="#04A468"/>
<line x1="40.8348" y1="6.00098" x2="60.5389" y2="20.8807" stroke="#04A468"/>
</svg>
