<svg width="32" height="33" viewBox="0 0 32 33" fill="none" xmlns="http://www.w3.org/2000/svg">
<path d="M5.53296 28.1465V15.8738" stroke="#04A468" stroke-linecap="round" stroke-linejoin="round"/>
<path d="M4.21069 28.1465H12.1446" stroke="#04A468" stroke-linecap="round" stroke-linejoin="round"/>
<path d="M0.973633 31.8738H30.0645" stroke="#04A468" stroke-linecap="round" stroke-linejoin="round"/>
<path d="M0.973633 29.8738H30.0645" stroke="#04A468" stroke-linecap="round" stroke-linejoin="round"/>
<path d="M4.21069 15.8738H12.1446" stroke="#04A468" stroke-linecap="round" stroke-linejoin="round"/>
<path d="M8.17749 28.1465V15.8738" stroke="#04A468" stroke-linecap="round" stroke-linejoin="round"/>
<path d="M10.8223 28.1465V15.8738" stroke="#04A468" stroke-linecap="round" stroke-linejoin="round"/>
<path d="M18.7561 28.1465H26.69" stroke="#04A468" stroke-linecap="round" stroke-linejoin="round"/>
<path d="M18.7561 15.8738H26.69" stroke="#04A468" stroke-linecap="round" stroke-linejoin="round"/>
<path d="M20.0784 28.1465V15.8738" stroke="#04A468" stroke-linecap="round" stroke-linejoin="round"/>
<path d="M22.7231 28.1465V15.8738" stroke="#04A468" stroke-linecap="round" stroke-linejoin="round"/>
<path d="M25.3677 28.1465V15.8738" stroke="#04A468" stroke-linecap="round" stroke-linejoin="round"/>
<path opacity="0.1" d="M2.42279 11.926C2.31377 12.0133 2.23396 12.1335 2.19454 12.2699C2.15512 12.4063 2.15807 12.5519 2.20298 12.6865C2.24788 12.8211 2.33249 12.9378 2.44495 13.0203C2.5574 13.1027 2.69207 13.1469 2.83007 13.1465H28.2079C28.3432 13.1468 28.4753 13.1042 28.5864 13.0247C28.6975 12.9451 28.7823 12.8323 28.8293 12.7015C28.8763 12.5707 28.8832 12.4282 28.8492 12.2931C28.8152 12.1581 28.7418 12.0371 28.639 11.9465L16.5623 1.23783C16.4465 1.13532 16.2999 1.07728 16.1473 1.07356C15.9948 1.06983 15.8456 1.12064 15.7253 1.21737L2.42279 11.926Z" fill="#04A468"/>
<path d="M2.42304 11.926C2.31402 12.0133 2.2342 12.1335 2.19478 12.2699C2.15537 12.4063 2.15831 12.5519 2.20322 12.6865C2.24813 12.8211 2.33274 12.9378 2.44519 13.0203C2.55765 13.1027 2.69231 13.1469 2.83031 13.1465H28.2082C28.3434 13.1468 28.4755 13.1042 28.5866 13.0247C28.6978 12.9451 28.7825 12.8323 28.8295 12.7015C28.8765 12.5707 28.8835 12.4282 28.8494 12.2931C28.8154 12.1581 28.742 12.0371 28.6392 11.9465L16.5625 1.23783C16.4467 1.13532 16.3001 1.07728 16.1476 1.07356C15.995 1.06983 15.8459 1.12064 15.7255 1.21737L2.42304 11.926Z" stroke="#04A468" stroke-linecap="round" stroke-linejoin="round"/>
</svg>
