<svg width="64" height="64" viewBox="0 0 64 64" fill="none" xmlns="http://www.w3.org/2000/svg">
<path d="M1.3335 29.481V37.481C1.3335 40.795 6.7055 43.481 13.3335 43.481C15.9548 43.481 19.3335 43.481 22.3335 41.481" stroke="#04A468" stroke-miterlimit="10"/>
<path d="M1.3335 37.481V45.481C1.3335 48.795 6.7055 51.481 13.3335 51.481C16.4075 51.481 19.2115 50.903 21.3335 49.953" stroke="#04A468" stroke-miterlimit="10"/>
<path d="M25.3335 29.481C25.3335 32.7947 19.9609 35.481 13.3335 35.481C6.70608 35.481 1.3335 32.7947 1.3335 29.481C1.3335 26.1673 6.70608 23.481 13.3335 23.481C19.9609 23.481 25.3335 26.1673 25.3335 29.481ZM25.3335 29.481V38.481" stroke="#04A468" stroke-miterlimit="10" stroke-linecap="square"/>
<path d="M21.3335 43.481V51.481C21.3335 54.795 26.7055 57.481 33.3335 57.481C39.9615 57.481 45.3335 54.795 45.3335 51.481V43.481" stroke="#04A468" stroke-miterlimit="10"/>
<path d="M33.3335 49.481C39.9609 49.481 45.3335 46.7947 45.3335 43.481C45.3335 40.1673 39.9609 37.481 33.3335 37.481C26.7061 37.481 21.3335 40.1673 21.3335 43.481C21.3335 46.7947 26.7061 49.481 33.3335 49.481Z" stroke="#04A468" stroke-miterlimit="10" stroke-linecap="square"/>
<path d="M13.3336 23.731C6.70614 23.731 1.33356 26.4173 1.33356 29.731C1.33356 31.7059 1.33334 43.731 1.33372 46.731C1.33372 48.731 7.3335 51.731 13.3336 51.731C15.2359 51.731 18.5674 51.5933 21.3335 50.3878V42.731C21.3335 42.731 22.3335 39.731 25.3336 38.731V29.731C25.3336 26.4173 19.961 23.731 13.3336 23.731Z" fill="#04A468" fill-opacity="0.1"/>
<path d="M33.3336 37.731C26.7061 37.731 21.3336 40.4173 21.3336 43.731C21.3336 45.7059 21.3333 49.731 21.3337 52.731C21.3337 54.731 27.3335 57.731 33.3336 57.731C36.407 57.731 43.2105 57.3715 45.3336 52.731V43.731C45.3336 40.4173 39.961 37.731 33.3336 37.731Z" fill="#04A468" fill-opacity="0.1"/>
<path d="M26.6667 11.8884C26.6667 10.7516 27.031 9.82145 27.7595 9.09804C28.488 8.36601 29.4437 8 30.6264 8C31.8263 8 32.7863 8.36601 33.5062 9.09804C34.2347 9.82145 34.599 10.7731 34.599 11.9529V12.883C34.599 14.0112 34.2347 14.937 33.5062 15.6604C32.7863 16.3839 31.8349 16.7456 30.6522 16.7456C29.4951 16.7456 28.5395 16.3925 27.7852 15.6863C27.0396 14.9715 26.6667 14.0112 26.6667 12.8055V11.8884ZM28.8523 12.883C28.8523 13.4773 29.0151 13.9596 29.3408 14.3299C29.6751 14.6916 30.1122 14.8724 30.6522 14.8724C31.1835 14.8724 31.6121 14.6916 31.9378 14.3299C32.2635 13.9596 32.4263 13.4601 32.4263 12.8314V11.8884C32.4263 11.2941 32.2592 10.8118 31.9249 10.4415C31.5992 10.0712 31.1664 9.88604 30.6264 9.88604C30.0865 9.88604 29.6537 10.0755 29.328 10.4544C29.0109 10.8248 28.8523 11.3156 28.8523 11.9271V12.883ZM38.7217 21.7965C38.7217 20.6425 39.0945 19.7081 39.8401 18.9933C40.5858 18.2785 41.5371 17.9211 42.6942 17.9211C43.8598 17.9211 44.8112 18.2785 45.5483 18.9933C46.2939 19.7081 46.6667 20.6727 46.6667 21.887V22.8042C46.6667 23.9237 46.3068 24.8495 45.5868 25.5815C44.8755 26.305 43.9198 26.6667 42.7199 26.6667C41.52 26.6667 40.5515 26.3093 39.8144 25.5945C39.0859 24.871 38.7217 23.9194 38.7217 22.7396V21.7965ZM40.9072 22.8042C40.9072 23.3898 41.0743 23.872 41.4086 24.251C41.7514 24.6213 42.1885 24.8065 42.7199 24.8065C43.2684 24.8065 43.697 24.6299 44.0055 24.2768C44.3226 23.9151 44.4812 23.4113 44.4812 22.7654V21.7965C44.4812 21.1937 44.3141 20.7114 43.9798 20.3497C43.6456 19.988 43.217 19.8072 42.6942 19.8072C42.1628 19.8072 41.73 19.988 41.3957 20.3497C41.07 20.7114 40.9072 21.2109 40.9072 21.8482V22.8042ZM32.645 25.672L31.038 24.7419L40.1787 10.0411L41.7857 10.9712L32.645 25.672Z" fill="#04A468"/>
<path d="M49.5881 20.4543L54.4836 25.459L59.5378 20.515" stroke="#04A468" stroke-linecap="round" stroke-linejoin="round"/>
<path d="M54.6667 25.3333L54.6667 9.33333" stroke="#04A468" stroke-linecap="round"/>
</svg>
